<mxfile host="app.diagrams.net" modified="2023-08-22T15:51:20.114Z" agent="Mozilla/5.0 (Windows NT 10.0; Win64; x64) AppleWebKit/537.36 (KHTML, like Gecko) Chrome/115.0.0.0 Safari/537.36 OPR/101.0.0.0" etag="8UVRMwF43fGOc8ptf9z5" version="21.6.8" type="device">
  <diagram name="Página-1" id="RLZFsZnQTvgCGe9CxmBT">
    <mxGraphModel dx="1374" dy="743" grid="1" gridSize="10" guides="1" tooltips="1" connect="1" arrows="1" fold="1" page="1" pageScale="1" pageWidth="827" pageHeight="1169" math="0" shadow="0">
      <root>
        <mxCell id="0" />
        <mxCell id="1" parent="0" />
        <mxCell id="ImZEPcU8Ib0OtB-njWMe-1" value="" style="rounded=0;whiteSpace=wrap;html=1;" parent="1" vertex="1">
          <mxGeometry x="150" y="40" width="430" height="310" as="geometry" />
        </mxCell>
        <mxCell id="ImZEPcU8Ib0OtB-njWMe-3" value="Folha de pagamento" style="text;html=1;strokeColor=none;fillColor=none;align=center;verticalAlign=middle;whiteSpace=wrap;rounded=0;" parent="1" vertex="1">
          <mxGeometry x="275" y="40" width="180" height="30" as="geometry" />
        </mxCell>
        <mxCell id="lCeitO0RFkrlNhoZ9jeN-19" style="edgeStyle=orthogonalEdgeStyle;rounded=0;orthogonalLoop=1;jettySize=auto;html=1;entryX=0;entryY=0.5;entryDx=0;entryDy=0;" parent="1" source="lCeitO0RFkrlNhoZ9jeN-3" target="lCeitO0RFkrlNhoZ9jeN-18" edge="1">
          <mxGeometry relative="1" as="geometry" />
        </mxCell>
        <mxCell id="lCeitO0RFkrlNhoZ9jeN-3" value="Usuário" style="shape=umlActor;verticalLabelPosition=bottom;verticalAlign=top;html=1;outlineConnect=0;" parent="1" vertex="1">
          <mxGeometry x="100" y="100" width="30" height="60" as="geometry" />
        </mxCell>
        <mxCell id="lCeitO0RFkrlNhoZ9jeN-7" value="&lt;span style=&quot;font-size: 10px;&quot;&gt;Gerar folha de pagamento&lt;/span&gt;" style="ellipse;whiteSpace=wrap;html=1;" parent="1" vertex="1">
          <mxGeometry x="460" y="180" width="90" height="60" as="geometry" />
        </mxCell>
        <mxCell id="lCeitO0RFkrlNhoZ9jeN-13" style="edgeStyle=orthogonalEdgeStyle;rounded=0;orthogonalLoop=1;jettySize=auto;html=1;" parent="1" source="lCeitO0RFkrlNhoZ9jeN-8" target="lCeitO0RFkrlNhoZ9jeN-7" edge="1">
          <mxGeometry relative="1" as="geometry" />
        </mxCell>
        <mxCell id="lCeitO0RFkrlNhoZ9jeN-8" value="Sistema" style="shape=umlActor;verticalLabelPosition=bottom;verticalAlign=top;html=1;outlineConnect=0;" parent="1" vertex="1">
          <mxGeometry x="600" y="180" width="30" height="60" as="geometry" />
        </mxCell>
        <mxCell id="lCeitO0RFkrlNhoZ9jeN-23" style="edgeStyle=orthogonalEdgeStyle;rounded=0;orthogonalLoop=1;jettySize=auto;html=1;entryX=0;entryY=0.5;entryDx=0;entryDy=0;" parent="1" source="lCeitO0RFkrlNhoZ9jeN-17" target="lCeitO0RFkrlNhoZ9jeN-7" edge="1">
          <mxGeometry relative="1" as="geometry" />
        </mxCell>
        <mxCell id="lCeitO0RFkrlNhoZ9jeN-17" value="&lt;span style=&quot;font-size: 10px;&quot;&gt;Preencher os dados do&amp;nbsp;funcionário&lt;/span&gt;" style="ellipse;whiteSpace=wrap;html=1;" parent="1" vertex="1">
          <mxGeometry x="310" y="180" width="90" height="60" as="geometry" />
        </mxCell>
        <mxCell id="lCeitO0RFkrlNhoZ9jeN-21" style="edgeStyle=orthogonalEdgeStyle;rounded=0;orthogonalLoop=1;jettySize=auto;html=1;entryX=0;entryY=0.5;entryDx=0;entryDy=0;" parent="1" source="lCeitO0RFkrlNhoZ9jeN-18" target="lCeitO0RFkrlNhoZ9jeN-20" edge="1">
          <mxGeometry relative="1" as="geometry" />
        </mxCell>
        <mxCell id="lCeitO0RFkrlNhoZ9jeN-18" value="&lt;span style=&quot;font-size: 10px;&quot;&gt;Acessar sistema&lt;/span&gt;" style="ellipse;whiteSpace=wrap;html=1;" parent="1" vertex="1">
          <mxGeometry x="180" y="100" width="90" height="60" as="geometry" />
        </mxCell>
        <mxCell id="lCeitO0RFkrlNhoZ9jeN-22" style="edgeStyle=orthogonalEdgeStyle;rounded=0;orthogonalLoop=1;jettySize=auto;html=1;" parent="1" source="lCeitO0RFkrlNhoZ9jeN-20" target="lCeitO0RFkrlNhoZ9jeN-17" edge="1">
          <mxGeometry relative="1" as="geometry" />
        </mxCell>
        <mxCell id="lCeitO0RFkrlNhoZ9jeN-20" value="&lt;span style=&quot;font-size: 10px;&quot;&gt;Acessar a rotina folha de pagamentos&lt;/span&gt;" style="ellipse;whiteSpace=wrap;html=1;" parent="1" vertex="1">
          <mxGeometry x="310" y="100" width="90" height="60" as="geometry" />
        </mxCell>
      </root>
    </mxGraphModel>
  </diagram>
</mxfile>
